<svg xmlns="http://www.w3.org/2000/svg" xmlns:xlink="http://www.w3.org/1999/xlink" viewBox="0 0 512 512" width="64px" height="64px"><defs><linearGradient id="voTwMB75bWYjNG4DJxboQa" x1="-88.01" x2="426.277" y1="392.01" y2="-122.277" data-name="New Gradient Swatch 1" gradientUnits="userSpaceOnUse"><stop offset="0" stop-color="#003f8a"/><stop offset=".518" stop-color="#00d7df"/><stop offset="1" stop-color="#006df0"/></linearGradient><linearGradient id="voTwMB75bWYjNG4DJxboQb" x1="119.99" x2="634.277" y1="600.01" y2="85.723" xlink:href="#voTwMB75bWYjNG4DJxboQa"/><linearGradient id="voTwMB75bWYjNG4DJxboQc" x1="15.99" x2="530.277" y1="496.01" y2="-18.277" xlink:href="#voTwMB75bWYjNG4DJxboQa"/><linearGradient id="voTwMB75bWYjNG4DJxboQd" x1="-131.089" x2="383.199" y1="348.932" y2="-165.355" xlink:href="#voTwMB75bWYjNG4DJxboQa"/><linearGradient id="voTwMB75bWYjNG4DJxboQe" x1="163.068" x2="677.355" y1="643.088" y2="128.801" xlink:href="#voTwMB75bWYjNG4DJxboQa"/><linearGradient id="voTwMB75bWYjNG4DJxboQf" x1="15.99" x2="530.277" y1="496.01" y2="-18.277" xlink:href="#voTwMB75bWYjNG4DJxboQa"/></defs><circle cx="256" cy="48" r="8" fill="url(#voTwMB75bWYjNG4DJxboQa)"/><circle cx="256" cy="464" r="8" fill="url(#voTwMB75bWYjNG4DJxboQb)"/><circle cx="48" cy="256" r="8" fill="url(#voTwMB75bWYjNG4DJxboQa)"/><path fill="url(#voTwMB75bWYjNG4DJxboQc)" d="M464,216a40.069,40.069,0,0,0-39.2,32H399.77a143.431,143.431,0,0,0-36.5-87.96l17.75-17.74a39.972,39.972,0,1,0-11.32-11.32l-17.74,17.75A143.431,143.431,0,0,0,264,112.23V87.19a40,40,0,1,0-16,0v25.04a143.431,143.431,0,0,0-87.96,36.5L142.3,130.98a39.972,39.972,0,1,0-11.32,11.32l17.75,17.74A143.431,143.431,0,0,0,112.23,248H87.2a40,40,0,1,0,0,16h25.03a143.431,143.431,0,0,0,36.5,87.96L130.98,369.7a39.972,39.972,0,1,0,11.32,11.32l17.74-17.75A143.431,143.431,0,0,0,248,399.77v25.04a40,40,0,1,0,16,0V399.77a143.431,143.431,0,0,0,87.96-36.5l17.74,17.75a40.016,40.016,0,0,0,18.32,59.12,40.318,40.318,0,0,0,15.06,2.92,39.99,39.99,0,1,0-22.06-73.36l-17.75-17.74A143.431,143.431,0,0,0,399.77,264H424.8A40,40,0,1,0,464,216ZM386.11,91.95a24,24,0,1,1-7.03,16.97A23.916,23.916,0,0,1,386.11,91.95ZM125.89,125.89a24,24,0,1,1,7.03-16.97A23.851,23.851,0,0,1,125.89,125.89ZM48,280a24,24,0,1,1,24-24A24.032,24.032,0,0,1,48,280Zm77.89,140.05a24,24,0,1,1,7.03-16.97A24.021,24.021,0,0,1,125.89,420.05Zm260.22-33.94a24.074,24.074,0,1,1-7.03,16.97A23.851,23.851,0,0,1,386.11,386.11ZM232,48a24,24,0,1,1,24,24A24.032,24.032,0,0,1,232,48Zm48,416a24,24,0,1,1-24-24A24.032,24.032,0,0,1,280,464Zm-24-80A128,128,0,1,1,384,256,128.144,128.144,0,0,1,256,384ZM464,280a24,24,0,1,1,24-24A24.032,24.032,0,0,1,464,280Z"/><circle cx="464" cy="256" r="8" fill="url(#voTwMB75bWYjNG4DJxboQb)"/><path fill="url(#voTwMB75bWYjNG4DJxboQd)" d="M103.265,103.265a8,8,0,1,0,11.314,0A8,8,0,0,0,103.265,103.265Z"/><circle cx="403.078" cy="403.078" r="8" fill="url(#voTwMB75bWYjNG4DJxboQe)"/><circle cx="108.922" cy="403.078" r="8" fill="url(#voTwMB75bWYjNG4DJxboQf)"/><path fill="url(#voTwMB75bWYjNG4DJxboQf)" d="M408.735,114.579a8,8,0,1,0-11.314,0A8,8,0,0,0,408.735,114.579Z"/><path fill="url(#voTwMB75bWYjNG4DJxboQc)" d="M256,168a88,88,0,1,0,88,88A88.1,88.1,0,0,0,256,168Zm0,160a72,72,0,1,1,72-72A72.083,72.083,0,0,1,256,328Z"/><path fill="url(#voTwMB75bWYjNG4DJxboQc)" d="M288,272a24.032,24.032,0,0,1-24,24,8,8,0,0,1-16,0H232a8,8,0,0,1,0-16h32a8.011,8.011,0,0,0,8-8c0-4.19-4.29-8-9-8H248a24,24,0,0,1,0-48,8,8,0,0,1,16,0h16a8,8,0,0,1,0,16H248a8,8,0,0,0,0,16h15C276.55,248,288,258.99,288,272Z"/></svg>