<svg fill="#000000" xmlns="http://www.w3.org/2000/svg"  viewBox="0 0 50 50" width="50px" height="50px"><path d="M 4 0 L 4 48 L 40 48 L 40 45.15625 C 40.839844 44.789063 41.613281 44.324219 42.3125 43.75 L 48.28125 49.71875 L 49.71875 48.28125 L 43.75 42.3125 C 45.160156 40.589844 46 38.398438 46 36 C 46 31.90625 43.527344 28.390625 40 26.84375 L 40 14.59375 L 25.40625 0 Z M 25 2.40625 L 37.59375 15 L 25 15 Z M 36 28 C 37.457031 28 38.820313 28.410156 40 29.09375 C 42.386719 30.480469 44 33.046875 44 36 C 44 38.953125 42.386719 41.519531 40 42.90625 C 38.820313 43.589844 37.457031 44 36 44 C 31.589844 44 28 40.410156 28 36 C 28 31.589844 31.589844 28 36 28 Z"/></svg>